#!OML:ASF F:\VICON\USERDATA\INSTALL\rory3\rory3.ASF
:FULLY-SPECIFIED
:DEGREES
524
root 0.132633 16.9987 36.2039 8.30734 -3.1766 -2.61957
lowerback -5.58471 2.8325 2.82914
upperback -3.34767 3.63772 0.993391
thorax -0.210131 1.79032 -0.366722
lowerneck -15.3409 -0.189875 1.79733
upperneck 45.8809 -0.670113 -0.534362
head 20.9516 0.042716 -0.731824
rclavicle 3.67348e-014 1.43125e-014
rhumerus -37.4009 -9.65031 -72.9827
rradius 33.2403
rwrist -14.6165
rhand -4.92186 11.6394
rfingers 7.12502
rthumb 20.8685 -17.2582
lclavicle 3.67348e-014 1.43125e-014
lhumerus -57.6218 35.9347 53.3093
lradius 22.768
lwrist -6.20852
lhand 3.25313 19.6808
lfingers 7.12502
lthumb 28.7024 47.4954
rfemur -16.7509 19.3681 27.6536
rtibia 30.9523
rfoot -17.7552 -17.9221
rtoes 7.52512
lfemur -33.7457 2.49139 -16.3278
ltibia 47.0002
lfoot -19.6288 18.135
ltoes -19.5789
525
root 0.157254 17.0206 36.288 8.52656 -2.99478 -2.71893
lowerback -5.63928 2.73711 3.20743
upperback -3.31692 3.48999 0.963218
thorax -0.128895 1.71218 -0.612291
lowerneck -15.61 -0.193876 1.64071
upperneck 45.7957 -0.701188 -0.381619
head 20.9745 0.0207297 -0.631906
rclavicle -4.2307e-014 -5.56597e-015
rhumerus -36.9385 -9.23203 -73.2426
rradius 33.8891
rwrist -14.9296
rhand -4.79287 11.4722
rfingers 7.12502
rthumb 20.9924 -17.4117
lclavicle -4.2307e-014 -5.56597e-015
lhumerus -56.907 35.5732 54.2948
lradius 23.2684
lwrist -5.84367
lhand 2.8416 19.1993
lfingers 7.12502
lthumb 28.3092 47.0798
rfemur -16.2617 18.427 27.6505
rtibia 30.2833
rfoot -17.784 -17.0293
rtoes 7.22425
lfemur -34.166 1.40522 -15.9894
ltibia 44.7943
lfoot -19.9083 18.6273
ltoes -19.7894
526
root 0.125852 17.0287 36.3827 8.72204 -3.71261 -2.96384
lowerback -6.02259 2.89789 2.86047
upperback -3.08529 3.6971 1.14525
thorax 0.296411 1.82762 -0.192983
lowerneck -15.868 -0.246656 1.33139
upperneck 45.5475 -0.794698 -0.132424
head 20.874 -0.0412836 -0.466351
rclavicle 4.81121e-015 9.54166e-015
rhumerus -36.2984 -8.75982 -73.5243
rradius 34.5522
rwrist -15.3949
rhand -4.76906 11.2271
rfingers 7.12502
rthumb 21.0153 -17.6543
lclavicle 4.81121e-015 9.54166e-015
lhumerus -56.4509 36.249 54.0982
lradius 23.0013
lwrist -6.9675
lhand 2.67137 19.0124
lfingers 7.12502
lthumb 28.1465 46.9197
rfemur -15.6696 20.0193 28.0105
rtibia 29.4272
rfoot -17.1354 -17.7747
rtoes 8.21303
lfemur -34.4737 1.22034 -15.2435
ltibia 42.5983
lfoot -19.4069 19.3384
ltoes -22.4025
527
root 0.142321 17.0486 36.4932 8.80289 -3.73467 -3.62786
lowerback -6.8314 2.90154 3.64735
upperback -2.53333 3.59793 1.34846
thorax 1.34455 1.78904 -0.36658
lowerneck -16.3376 -0.195488 1.36173
upperneck 45.2306 -0.712152 -0.188187
head 20.7886 -0.01694 -0.484567
rclavicle -2.05742e-014 1.35174e-014
rhumerus -35.2103 -8.40691 -73.834
rradius 35.1636
rwrist -15.7711
rhand -4.87467 10.9264
rfingers 7.12502
rthumb 20.9138 -17.9662
lclavicle -2.05742e-014 1.35174e-014
lhumerus -55.4693 36.994 54.4891
lradius 22.8653
lwrist -7.63378
lhand 2.4014 19.2649
lfingers 7.12502
lthumb 27.8884 47.2144
rfemur -14.7551 19.6623 28.7185
rtibia 28.4931
rfoot -16.8443 -17.1901
rtoes 9.42176
lfemur -34.5516 0.362593 -14.1416
ltibia 40.4313
lfoot -19.0735 19.6419
ltoes -24.0529
528
root 0.178592 17.0823 36.5969 8.9695 -3.39041 -3.7316
lowerback -6.78158 2.72985 4.17573
upperback -2.82414 3.34902 1.26577
thorax 1.04181 1.65479 -0.777133
lowerneck -15.9648 -0.0999415 1.71899
upperneck 45.4342 -0.585001 -0.427236
head 20.8204 0.0620251 -0.646622
rclavicle -3.98067e-014 -4.17448e-015
rhumerus -35.4409 -7.85379 -74.0759
rradius 35.764
rwrist -16.1596
rhand -4.79925 11.0465
rfingers 7.12502
rthumb 20.9863 -17.8381
lclavicle -3.98067e-014 -4.17448e-015
lhumerus -54.8432 34.9066 56.4972
lradius 24.1055
lwrist -5.30051
lhand 1.83817 20.2051
lfingers 7.12502
lthumb 27.3498 48.2408
rfemur -13.9738 18.1541 28.6794
rtibia 27.5448
rfoot -16.805 -16.0752
rtoes 8.47464
lfemur -34.7894 -1.00938 -13.6774
ltibia 38.2219
lfoot -18.8901 19.5463
ltoes -24.5542
529
root 0.175293 17.1049 36.6816 9.16568 -3.8156 -3.34582
lowerback -6.26321 2.6543 3.48136
upperback -3.39599 3.33646 1.20316
thorax 0.130433 1.63587 -0.499556
lowerneck -15.4202 -0.01993 1.94396
upperneck 45.7762 -0.474965 -0.565355
head 20.9033 0.126143 -0.737332
rclavicle -7.30844e-015 -1.74931e-014
rhumerus -36.0154 -7.01285 -74.3315
rradius 36.3417
rwrist -16.4359
rhand -4.92 11.2164
rfingers 7.12502
rthumb 20.8703 -17.681
lclavicle -7.30844e-015 -1.74931e-014
lhumerus -56.0431 35.7483 54.244
lradius 23.0212
lwrist -7.38399
lhand 1.76332 19.3571
lfingers 7.12502
lthumb 27.2782 47.4041
rfemur -13.2672 18.5331 28.2266
rtibia 26.3413
rfoot -16.5837 -16.1269
rtoes 6.80798
lfemur -35.0639 -1.98839 -13.4235
ltibia 36.011
lfoot -19.0566 19.1496
ltoes -22.857
530
root 0.172814 17.1145 36.7454 9.3525 -4.21698 -3.62341
lowerback -5.53917 2.71791 3.53756
upperback -3.86681 3.46932 1.26956
thorax -0.753504 1.686 -0.504525
lowerneck -15.2068 -0.0359068 1.94014
upperneck 45.9994 -0.549088 -0.466507
head 21.0017 0.111504 -0.702547
rclavicle -3.34579e-014 -1.70955e-014
rhumerus -36.5089 -6.59676 -74.4654
rradius 37.1074
rwrist -16.5191
rhand -4.95572 10.9032
rfingers 7.12502
rthumb 20.836 -17.998
lclavicle -3.34579e-014 -1.70955e-014
lhumerus -56.1081 34.8945 54.5949
lradius 23.4699
lwrist -7.05284
lhand 1.58014 19.4367
lfingers 7.12502
lthumb 27.103 47.5111
rfemur -12.6271 19.1631 28.5116
rtibia 25.1683
rfoot -16.1452 -16.2945
rtoes 5.47226
lfemur -35.3403 -2.86703 -12.3544
ltibia 33.8656
lfoot -19.1587 18.7346
ltoes -21.2559
531
root 0.202461 17.1423 36.8931 9.57706 -4.24309 -4.10624
lowerback -6.29726 2.82178 4.43158
upperback -3.78255 3.51855 1.26823
thorax -0.19529 1.70476 -0.957217
lowerneck -15.385 -0.0974525 1.83047
upperneck 46.0334 -0.686539 -0.31798
head 21.0826 0.059482 -0.635713
rclavicle 1.42721e-014 -1.59028e-015
rhumerus -36.6478 -6.47703 -74.5742
rradius 37.9864
rwrist -16.8291
rhand -4.92921 10.6502
rfingers 7.12502
rthumb 20.8614 -18.2482
lclavicle 1.42721e-014 -1.59028e-015
lhumerus -55.0793 33.3455 56.4984
lradius 24.4757
lwrist -5.49822
lhand 1.31494 20.5758
lfingers 7.12502
lthumb 26.8492 48.6894
rfemur -11.5557 18.1298 28.8926
rtibia 24.0226
rfoot -16.0937 -15.1399
rtoes 5.14052
lfemur -35.2276 -4.2384 -11.2362
ltibia 31.7039
lfoot -19.1266 18.4372
ltoes -20.9398
532
root 0.189231 17.1463 36.9785 9.76324 -4.85023 -4.64633
lowerback -6.26628 2.94248 4.52689
upperback -3.82304 3.67609 1.54062
thorax -0.259181 1.78281 -0.722881
lowerneck -15.372 -0.0927413 1.70833
upperneck 45.8716 -0.619775 -0.351472
head 20.9582 0.0537925 -0.616162
rclavicle 4.40991e-014 5.96354e-016
rhumerus -36.6173 -6.0832 -74.6245
rradius 38.7288
rwrist -17.1402
rhand -4.77356 10.6705
rfingers 7.12502
rthumb 21.011 -18.2113
lclavicle 4.40991e-014 5.96354e-016
lhumerus -54.708 32.8337 57.1928
lradius 24.8736
lwrist -4.9643
lhand 1.12447 20.579
lfingers 7.12502
lthumb 26.667 48.7205
rfemur -10.7408 19.1725 29.5094
rtibia 22.9591
rfoot -15.7333 -15.3093
rtoes 5.32814
lfemur -35.367 -5.19722 -9.67988
ltibia 29.6916
lfoot -18.7348 18.1779
ltoes -20.4559
533
root 0.223768 17.1749 37.0762 9.87188 -4.72575 -4.45292
lowerback -6.43345 2.72445 4.57072
upperback -3.82526 3.37304 1.51259
thorax -0.17871 1.63151 -0.788
lowerneck -15.2704 0.0092415 1.68619
upperneck 45.6133 -0.457737 -0.339872
head 20.7389 0.105798 -0.57094
rclavicle -2.34659e-014 -3.3197e-014
rhumerus -36.3025 -5.55608 -74.8
rradius 39.0531
rwrist -17.3446
rhand -4.89245 10.8573
rfingers 7.12502
rthumb 20.8967 -18.0372
lclavicle -2.34659e-014 -3.3197e-014
lhumerus -54.5868 32.8921 57.125
lradius 24.9933
lwrist -5.03137
lhand 1.1979 20.5193
lfingers 7.12502
lthumb 26.7372 48.6501
rfemur -9.87148 17.961 29.1413
rtibia 21.7024
rfoot -15.1505 -14.36
rtoes 4.20322
lfemur -35.4824 -6.90123 -9.12737
ltibia 27.7201
lfoot -18.1852 18.0277
ltoes -22.2719
534
root 0.17754 17.1709 37.1553 9.90308 -6.20412 -4.89306
lowerback -6.19094 3.02451 4.00352
upperback -3.79713 3.81407 1.81449
thorax -0.318072 1.86191 -0.147005
lowerneck -15.1579 0.135507 2.04714
upperneck 45.5179 -0.193422 -0.768438
head 20.6377 0.208871 -0.802323
rclavicle -1.68781e-014 -1.03368e-014
rhumerus -36.0713 -5.18986 -74.9459
rradius 39.4563
rwrist -17.4785
rhand -4.86318 10.9756
rfingers 7.12502
rthumb 20.9249 -17.9157
lclavicle -1.68781e-014 -1.03368e-014
lhumerus -54.4359 32.9345 57.0899
lradius 25.1297
lwrist -5.21536
lhand 1.12672 20.6126
lfingers 7.12502
lthumb 26.6691 48.7538
rfemur -9.1424 20.798 29.7734
rtibia 20.8611
rfoot -14.4978 -15.5712
rtoes 3.61039
lfemur -35.2085 -7.41105 -7.42975
ltibia 25.7673
lfoot -17.4427 18.5441
ltoes -25.7419
535
root 0.221612 17.1903 37.2902 9.99025 -6.24364 -4.76876
lowerback -6.71492 2.96939 4.35687
upperback -3.74716 3.68708 1.69177
thorax 0.0481943 1.79744 -0.446353
lowerneck -15.0027 0.132235 1.9834
upperneck 45.2921 -0.188119 -0.746228
head 20.427 0.196457 -0.775992
rclavicle -2.42642e-014 -2.38542e-015
rhumerus -36.0723 -4.84501 -75.0883
rradius 40.0531
rwrist -17.7913
rhand -4.71338 10.8006
rfingers 7.12502
rthumb 21.0688 -18.0749
lclavicle -2.42642e-014 -2.38542e-015
lhumerus -54.4369 33.0392 56.8422
lradius 25.2791
lwrist -5.5307
lhand 0.978887 20.7044
lfingers 7.12502
lthumb 26.5276 48.8671
rfemur -8.06328 19.3614 29.4329
rtibia 19.9177
rfoot -14.9377 -13.9873
rtoes 1.98822
lfemur -35.2974 -9.4078 -6.69841
ltibia 24.2124
lfoot -16.6506 19.2375
ltoes -32.8578
536
root 0.240694 17.1818 37.3614 10.1023 -6.40798 -4.77185
lowerback -6.61446 2.94927 4.39762
upperback -3.60023 3.6586 1.68733
thorax 0.146209 1.78583 -0.476286
lowerneck -15.5915 0.0962575 1.80774
upperneck 45.0504 -0.257107 -0.627468
head 20.4331 0.150446 -0.698633
rclavicle -3.68062e-015 -2.78299e-014
rhumerus -35.4934 -4.73985 -75.1829
rradius 40.4729
rwrist -18.0229
rhand -4.87123 10.531
rfingers 7.12502
rthumb 20.9171 -18.3612
lclavicle -3.68062e-015 -2.78299e-014
lhumerus -53.9063 33.7597 56.538
lradius 24.9773
lwrist -6.29564
lhand 0.821583 20.3491
lfingers 7.12502
lthumb 26.3771 48.5344
rfemur -7.28147 18.9363 29.3093
rtibia 18.8318
rfoot -14.8211 -13.2232
rtoes 2.20264
lfemur -35.9475 -11.5284 -5.31265
ltibia 22.9279
lfoot -16.519 19.3501
ltoes -33.6211
537
root 0.241472 17.2163 37.4615 10.336 -7.13932 -4.73543
lowerback -7.19376 3.09726 4.13472
upperback -3.268 3.8227 1.66648
thorax 0.802014 1.88372 -0.296023
lowerneck -16.2756 0.0397674 1.77696
upperneck 44.806 -0.37143 -0.609738
head 20.4657 0.0985377 -0.710025
rclavicle 1.17873e-014 9.74045e-015
rhumerus -34.6956 -4.88898 -75.2912
rradius 40.73
rwrist -17.9975
rhand -4.87356 10.4928
rfingers 7.12502
rthumb 20.9149 -18.3997
lclavicle 1.17873e-014 9.74045e-015
lhumerus -52.9363 33.9195 56.9429
lradius 25.0581
lwrist -6.21039
lhand 0.918352 20.4105
lfingers 7.12502
lthumb 26.4697 48.5819
rfemur -6.65161 19.5119 29.1421
rtibia 17.7376
rfoot -13.9186 -13.1783
rtoes 3.11096
lfemur -36.0421 -12.7501 -4.32184
ltibia 21.9825
lfoot -16.9376 19.0517
ltoes -33.6545
